<svg xmlns="http://www.w3.org/2000/svg" version="1.1" xmlns:xlink="http://www.w3.org/1999/xlink" xmlns:svgjs="http://svgjs.dev/svgjs" width="100%" height="100%" viewBox="0 0 1000 600"><rect width="1000" height="600" x="0" y="0" fill="#ee4e34"/><g><circle r="166.66666666666666" cx="442.1695353190104" cy="346.41651929026096" fill="#fcedda" transform="matrix(0.7935115961955872,0,0,0.7935115961955872,-19.330351616546338,25.114467779551177)"/><path d="M295.81098189361177 416.545157843374L295.81098189361177 416.545157843374L255.8752886158937 326.64161645488787L215.60197474283262 416.545157843374Q213.4797881435336 421.4165407190377 208.27078467252687 421.4165407190377L208.27078467252687 421.4165407190377L185.36081570282147 421.4165407190377Q181.88814672215034 421.4165407190377 181.88814672215034 419.00496503801605L181.88814672215034 419.00496503801605Q181.88814672215034 417.9438717383665 182.6116194264568 416.545157843374L182.6116194264568 416.545157843374L240.92351939355964 295.72521622419066Q242.99747447923824 290.853833348527 248.20647795024496 290.853833348527L248.20647795024496 290.853833348527L264.55696106757154 290.853833348527Q269.76596453857826 290.853833348527 271.8399196242568 295.72521622419066L271.8399196242568 295.72521622419066L330.2000511049801 416.545157843374Q330.8752922956662 417.9438717383665 330.8752922956662 419.00496503801605L330.8752922956662 419.00496503801605Q330.8752922956662 421.4165407190377 327.065002719652 421.4165407190377L327.065002719652 421.4165407190377L303.09394045029705 421.4165407190377Q297.8849369792904 421.4165407190377 295.81098189361177 416.545157843374ZM396.8560029284178 301.27184029054035L432.9814066301217 318.63518519389606L437.8527895057854 278.0242507254919Q438.52803069647143 274.16572963585736 439.92674459146394 272.81524725448526Q441.3254584864565 271.41653335949275 445.13574806247067 271.41653335949275L445.13574806247067 271.41653335949275L446.87208255280626 271.41653335949275Q450.6823721288204 271.41653335949275 452.081086023813 272.81524725448526Q453.4797999188055 274.16572963585736 454.15504110949155 278.0242507254919L454.15504110949155 278.0242507254919L457.9653306855057 318.63518519389606L495.82706887754523 301.60946088588344Q501.71131353923795 298.47441250055533 505.1839825199091 305.0821298665546L505.1839825199091 305.0821298665546Q506.2450758195586 307.1560849522332 506.2450758195586 309.61589214687524Q506.2450758195586 312.0274678278969 503.11002743423046 314.48727502253894L503.11002743423046 314.48727502253894L468.7209582228621 338.07248518293034L503.44764802957354 363.10464075193477Q506.58269641490165 365.5162164329564 506.58269641490165 367.92779211397806Q506.58269641490165 370.3875993086201 505.1839825199091 372.4615543942987L505.1839825199091 372.4615543942987L504.508741329223 372.79917498964176Q502.4347862435444 376.27184397031283 500.6984517532088 376.80239062013766Q498.9621172628733 377.3329372699624 495.1518276868592 375.5966027796268L495.1518276868592 375.5966027796268L458.6888033898122 358.57087847161415L453.8174205141485 398.50657174933224Q453.093947809842 402.3168613253464 451.74346542846996 403.7155752203389Q450.3447515334774 405.11428911533153 446.53446195746324 405.11428911533153L446.53446195746324 405.11428911533153L445.13574806247067 405.11428911533153Q441.3254584864565 405.11428911533153 439.92674459146394 403.7155752203389Q438.52803069647143 402.3168613253464 437.8527895057854 398.50657174933224L437.8527895057854 398.50657174933224L433.6566478208078 358.57087847161415L396.1807617377317 375.5966027796268Q394.05857513843273 376.6094645656559 391.6469994574111 376.6094645656559Q389.23542377638944 376.6094645656559 387.1132371770904 372.4615543942987L387.1132371770904 372.4615543942987Q385.76275479571837 371.06284049930616 385.76275479571837 367.92779211397806Q385.76275479571837 364.84097524227036 388.84957166742595 362.3811680476283L388.84957166742595 362.3811680476283L422.9010202834513 338.7959578872368L388.84957166742595 314.10142291357545Q385.76275479571837 311.6898472325538 385.76275479571837 309.27827155153216L385.76275479571837 309.27827155153216Q385.76275479571837 307.5419370611967 387.4990892860539 304.0692680805255L387.4990892860539 304.0692680805255Q389.57304437173246 300.59659909985436 391.4540734029294 300.0660524500296Q393.3833339477466 299.5355058002048 396.8560029284178 301.27184029054035L396.8560029284178 301.27184029054035ZM667.3865628254234 416.545157843374L667.3865628254234 416.545157843374L627.4508695477053 326.64161645488787L587.1775556746443 416.545157843374Q585.0553690753452 421.4165407190377 579.8463656043385 421.4165407190377L579.8463656043385 421.4165407190377L556.9363966346332 421.4165407190377Q553.463727653962 421.4165407190377 553.463727653962 419.00496503801605L553.463727653962 419.00496503801605Q553.463727653962 417.9438717383665 554.1872003582685 416.545157843374L554.1872003582685 416.545157843374L612.4991003253713 295.72521622419066Q614.5730554110498 290.853833348527 619.7820588820566 290.853833348527L619.7820588820566 290.853833348527L636.1325419993832 290.853833348527Q641.3415454703899 290.853833348527 643.4155005560684 295.72521622419066L643.4155005560684 295.72521622419066L701.7756320367918 416.545157843374Q702.4508732274778 417.9438717383665 702.4508732274778 419.00496503801605L702.4508732274778 419.00496503801605Q702.4508732274778 421.4165407190377 698.6405836514635 421.4165407190377L698.6405836514635 421.4165407190377L674.6695213821088 421.4165407190377Q669.4605179111021 421.4165407190377 667.3865628254234 416.545157843374Z " fill="#ee4e34" transform="matrix(0.7935115961955872,0,0,0.7935115961955872,-19.330351616546338,25.114467779551177)"/><path d="M836.2692765038826 290.45546259056806L824.6512715658141 290.45546259056806L824.6512715658141 418.13186240735126Q824.6512715658141 421.41653396052243 821.366600012643 421.41653396052243L821.366600012643 421.41653396052243L805.3690330036798 421.41653396052243Q802.0843614505086 421.41653396052243 800.3507847974461 418.8009621681824L800.3507847974461 418.8009621681824L726.1111249706789 309.0686013918714L726.1111249706789 404.1111810553891L744.2984730150897 404.1111810553891Q747.5831445682609 404.1111810553891 747.5831445682609 407.3958526085603L747.5831445682609 407.3958526085603L747.5831445682609 418.13186240735126Q747.5831445682609 421.41653396052243 744.2984730150897 421.41653396052243L744.2984730150897 421.41653396052243L695.4541904744148 421.41653396052243Q692.1695189212435 421.41653396052243 692.1695189212435 418.13186240735126L692.1695189212435 418.13186240735126L692.1695189212435 407.3958526085603Q692.1695189212435 404.1111810553891 695.4541904744148 404.1111810553891L695.4541904744148 404.1111810553891L707.0721954124831 404.1111810553891L707.0721954124831 290.45546259056806L695.4541904744148 290.45546259056806Q692.1695189212435 290.45546259056806 692.1695189212435 287.1707910373969L692.1695189212435 287.1707910373969L692.1695189212435 276.00899048171334Q692.1695189212435 272.7243189285422 695.4541904744148 272.7243189285422L695.4541904744148 272.7243189285422L727.6318062452954 272.7243189285422Q730.7035824200202 272.7243189285422 732.6804680770213 275.5831997248208L732.6804680770213 275.5831997248208L805.6123420076183 386.3800373933633L805.6123420076183 290.45546259056806L793.9943370695498 290.45546259056806Q790.7096655163787 290.45546259056806 790.7096655163787 287.1707910373969L790.7096655163787 287.1707910373969L790.7096655163787 276.00899048171334Q790.7096655163787 272.7243189285422 793.9943370695498 272.7243189285422L793.9943370695498 272.7243189285422L836.2692765038826 272.7243189285422Q839.5539480570537 272.7243189285422 839.5539480570537 276.00899048171334L839.5539480570537 276.00899048171334L839.5539480570537 287.1707910373969Q839.5539480570537 290.45546259056806 836.2692765038826 290.45546259056806L836.2692765038826 290.45546259056806ZM854.6391063012472 418.13186240735126L854.6391063012472 418.13186240735126L854.6391063012472 407.3958526085603Q854.6391063012472 404.1111810553891 857.9237778544184 404.1111810553891L857.9237778544184 404.1111810553891L869.5417827924869 404.1111810553891L869.5417827924869 290.45546259056806L858.1670868583572 290.45546259056806Q854.882415305186 290.45546259056806 854.882415305186 287.1707910373969L854.882415305186 287.1707910373969L854.882415305186 276.00899048171334Q854.882415305186 272.51142355009597 858.1670868583572 272.51142355009597L858.1670868583572 272.51142355009597Q884.4444592837265 271.4165330323722 908.0758462912636 271.4165330323722Q931.7376469242929 271.4165330323722 945.8495691527319 280.51020705457756Q959.9919050066633 289.60388107678295 959.9919050066633 306.4530295995314L959.9919050066633 306.4530295995314Q959.9919050066633 318.7097206729386 952.4189122590742 327.803394695144Q944.8763331369776 336.8970687173494 934.5661140950792 341.063735409798L934.5661140950792 341.063735409798Q951.4456762433199 343.67930720213803 960.2960412615867 353.53332186165153Q969.1768199053456 363.387336521165 969.1768199053456 377.6209132515735L969.1768199053456 377.6209132515735Q969.1768199053456 396.2340520528768 955.36903393183 407.73040248897587Q941.5916615838064 419.22675292507495 918.8118560900543 420.74743419969127L918.8118560900543 420.74743419969127Q909.3836321874335 421.41653396052243 888.5807123506827 421.41653396052243L888.5807123506827 421.41653396052243L857.9237778544184 421.41653396052243Q854.6391063012472 421.41653396052243 854.6391063012472 418.13186240735126ZM909.8398365698183 352.43843134392785L894.0551649393014 352.43843134392785L894.0551649393014 404.56738543777396L903.909179598815 404.56738543777396Q923.1914181609493 404.56738543777396 933.805773457771 398.42383308832416Q944.4201287545927 392.28028073887447 944.4201287545927 377.19512249468085L944.4201287545927 377.19512249468085Q944.4201287545927 352.43843134392785 909.8398365698183 352.43843134392785L909.8398365698183 352.43843134392785ZM904.3653839811998 289.14767669439806L894.0551649393014 289.14767669439806L894.0551649393014 334.25108329951706L902.3884983241985 334.25108329951706Q934.8094230990177 334.25108329951706 934.8094230990177 311.71458680970375L934.8094230990177 311.71458680970375Q934.8094230990177 299.0016913539116 926.9018804710131 294.07468402415486Q919.0247514685007 289.14767669439806 904.3653839811998 289.14767669439806L904.3653839811998 289.14767669439806ZM1072.0965285713758 374.5491370768485L1021.5186693776382 374.5491370768485L1011.4517593396783 404.1111810553891L1024.5904455523632 404.1111810553891Q1027.8751171055344 404.1111810553891 1027.8751171055344 407.3958526085603L1027.8751171055344 407.3958526085603L1027.8751171055344 418.13186240735126Q1027.8751171055344 421.41653396052243 1024.5904455523632 421.41653396052243L1024.5904455523632 421.41653396052243L977.9359440471355 421.41653396052243Q974.6512724939644 421.41653396052243 974.6512724939644 418.13186240735126L974.6512724939644 418.13186240735126L974.6512724939644 407.3958526085603Q974.6512724939644 404.1111810553891 977.9359440471355 404.1111810553891L977.9359440471355 404.1111810553891L990.8617348813739 404.1111810553891L1034.6573555903228 275.79609510326713Q1035.965141486493 272.7243189285422 1039.0369176612178 272.7243189285422L1039.0369176612178 272.7243189285422L1060.265628254861 272.7243189285422Q1063.337404429586 272.7243189285422 1064.645190325756 275.79609510326713L1064.645190325756 275.79609510326713L1108.8970154170897 404.1111810553891L1123.7692782828371 404.1111810553891Q1127.0539498360083 404.1111810553891 1127.0539498360083 407.3958526085603L1127.0539498360083 407.3958526085603L1127.0539498360083 418.13186240735126Q1127.0539498360083 421.41653396052243 1123.7692782828371 421.41653396052243L1123.7692782828371 421.41653396052243L1068.8118570182046 421.41653396052243Q1065.5271854650334 421.41653396052243 1065.5271854650334 418.13186240735126L1065.5271854650334 418.13186240735126L1065.5271854650334 407.3958526085603Q1065.5271854650334 404.1111810553891 1068.8118570182046 404.1111810553891L1068.8118570182046 404.1111810553891L1082.376333987782 404.1111810553891L1072.0965285713758 374.5491370768485ZM1067.2911757435884 358.1257793109927L1046.701151285284 293.7401341437393L1025.8982314485331 358.1257793109927L1067.2911757435884 358.1257793109927Z " fill="#fcedda" transform="matrix(0.7935115961955872,0,0,0.7935115961955872,-19.330351616546338,25.114467779551177)"/></g></svg>